<svg width="447" height="461" viewBox="0 0 447 461" fill="none" xmlns="http://www.w3.org/2000/svg">
<path d="M222.256 460.091V385.748L445.286 255.647V330.765L222.256 460.091Z" fill="#312ECC"/>
<path d="M223.03 334.637V260.293L9.15527e-05 130.192V205.31L223.03 334.637Z" fill="#017AFF"/>
<path d="M223.03 460.091V385.748L9.15527e-05 255.647V330.765L223.03 460.091Z" fill="#017AFF"/>
<path d="M446.061 204.536V130.193L223.03 0.0914917V75.2093L446.061 204.536Z" fill="#017AFF"/>
<path d="M446.061 329.99V255.647L223.03 125.546V200.664L446.061 329.99Z" fill="#017AFF"/>
<path d="M222.256 334.637V260.293L445.286 130.192V205.31L222.256 334.637Z" fill="#312ECC"/>
<path d="M0 329.99V255.647L223.03 125.546V200.664L0 329.99Z" fill="#312ECC"/>
<path d="M0 204.536V130.192L223.03 0.0913086V75.2092L0 204.536Z" fill="#312ECC"/>
</svg>
