<svg width="660" height="151" viewBox="0 0 660 151" fill="none" xmlns="http://www.w3.org/2000/svg">
<path d="M72.7539 150.577V126.242L145.761 83.6541V108.243L72.7539 150.577Z" fill="#312ECC"/>
<path d="M73.0078 109.511V85.1752L0.000518799 42.5876V67.1769L73.0078 109.511Z" fill="#017AFF"/>
<path d="M73.0078 150.577V126.242L0.000518799 83.6541V108.243L73.0078 150.577Z" fill="#017AFF"/>
<path d="M146.015 66.9234V42.5876L73.0074 6.10352e-05V24.5893L146.015 66.9234Z" fill="#017AFF"/>
<path d="M146.015 107.99V83.6541L73.0074 41.0665V65.6558L146.015 107.99Z" fill="#017AFF"/>
<path d="M72.7539 109.511V85.1752L145.761 42.5876V67.1769L72.7539 109.511Z" fill="#312ECC"/>
<path d="M0 107.99V83.6541L73.0073 41.0665V65.6558L0 107.99Z" fill="#312ECC"/>
<path d="M0 66.9233V42.5876L73.0073 0V24.5893L0 66.9233Z" fill="#312ECC"/>
<path d="M210.088 63.2593C209.868 61.0461 208.926 59.3268 207.262 58.1013C205.598 56.8758 203.339 56.2631 200.485 56.2631C198.546 56.2631 196.909 56.5374 195.574 57.0862C194.239 57.6166 193.215 58.3574 192.501 59.3085C191.806 60.2596 191.459 61.3388 191.459 62.546C191.422 63.552 191.633 64.4299 192.09 65.1798C192.565 65.9298 193.215 66.5791 194.038 67.1278C194.861 67.6583 195.812 68.1247 196.891 68.5271C197.97 68.9112 199.123 69.2404 200.348 69.5148L205.396 70.722C207.847 71.2707 210.097 72.0023 212.146 72.9169C214.194 73.8314 215.968 74.9563 217.468 76.2915C218.968 77.6267 220.13 79.1998 220.953 81.0105C221.794 82.8213 222.224 84.8973 222.242 87.2386C222.224 90.6772 221.346 93.6586 219.608 96.1828C217.889 98.6886 215.401 100.637 212.146 102.027C208.908 103.399 205.003 104.084 200.43 104.084C195.894 104.084 191.943 103.389 188.578 101.999C185.231 100.609 182.615 98.5514 180.731 95.8261C178.866 93.0825 177.887 89.6895 177.796 85.6473H189.291C189.419 87.5312 189.959 89.1042 190.91 90.3663C191.879 91.6101 193.169 92.5521 194.779 93.1922C196.406 93.8141 198.245 94.1251 200.293 94.1251C202.305 94.1251 204.052 93.8324 205.534 93.2471C207.033 92.6618 208.195 91.8479 209.018 90.8053C209.841 89.7627 210.253 88.5647 210.253 87.2111C210.253 85.9491 209.878 84.8882 209.128 84.0285C208.396 83.1689 207.317 82.4372 205.89 81.8336C204.482 81.23 202.753 80.6813 200.705 80.1875L194.586 78.651C189.849 77.4987 186.109 75.6971 183.365 73.2461C180.621 70.7951 179.259 67.4936 179.277 63.3416C179.259 59.9395 180.164 56.9673 181.993 54.4249C183.841 51.8824 186.374 49.8979 189.593 48.4712C192.812 47.0445 196.47 46.3312 200.568 46.3312C204.738 46.3312 208.378 47.0445 211.487 48.4712C214.615 49.8979 217.048 51.8824 218.785 54.4249C220.523 56.9673 221.419 59.9121 221.474 63.2593H210.088ZM263.395 47.0994H275.274V83.5896C275.274 87.6867 274.296 91.2717 272.339 94.3445C270.4 97.4174 267.684 99.8135 264.19 101.533C260.697 103.234 256.627 104.084 251.981 104.084C247.317 104.084 243.238 103.234 239.745 101.533C236.251 99.8135 233.535 97.4174 231.596 94.3445C229.657 91.2717 228.688 87.6867 228.688 83.5896V47.0994H240.568V82.5744C240.568 84.7144 241.034 86.6167 241.967 88.2811C242.918 89.9456 244.253 91.2534 245.973 92.2045C247.692 93.1556 249.695 93.6312 251.981 93.6312C254.286 93.6312 256.289 93.1556 257.99 92.2045C259.709 91.2534 261.035 89.9456 261.968 88.2811C262.919 86.6167 263.395 84.7144 263.395 82.5744V47.0994ZM283.503 103.289V47.0994H305.672C309.934 47.0994 313.564 47.9133 316.564 49.5412C319.564 51.1508 321.85 53.3914 323.423 56.2631C325.014 59.1164 325.81 62.4088 325.81 66.1401C325.81 69.8714 325.005 73.1638 323.396 76.0172C321.786 78.8705 319.454 81.0929 316.399 82.6842C313.363 84.2755 309.687 85.0711 305.37 85.0711H291.24V75.5507H303.45C305.736 75.5507 307.62 75.1575 309.101 74.371C310.601 73.5662 311.717 72.4596 312.449 71.0512C313.199 69.6245 313.574 67.9875 313.574 66.1401C313.574 64.2745 313.199 62.6466 312.449 61.2565C311.717 59.8481 310.601 58.7598 309.101 57.9916C307.602 57.2051 305.699 56.8118 303.395 56.8118H295.383V103.289H283.503ZM331.981 103.289V47.0994H369.843V56.8941H343.861V70.283H367.895V80.0777H343.861V93.494H369.953V103.289H331.981ZM377.743 103.289V47.0994H399.911C404.155 47.0994 407.777 47.8584 410.776 49.3766C413.794 50.8764 416.09 53.0073 417.663 55.7692C419.254 58.5128 420.05 61.7412 420.05 65.4542C420.05 69.1855 419.245 72.3956 417.635 75.0843C416.026 77.7548 413.694 79.8034 410.639 81.23C407.603 82.6567 403.926 83.3701 399.61 83.3701H384.767V73.8223H397.689C399.957 73.8223 401.841 73.5113 403.341 72.8894C404.841 72.2675 405.957 71.3347 406.688 70.0909C407.438 68.8472 407.813 67.3016 407.813 65.4542C407.813 63.5885 407.438 62.0155 406.688 60.7352C405.957 59.4548 404.832 58.4854 403.314 57.8269C401.814 57.1502 399.921 56.8118 397.634 56.8118H389.623V103.289H377.743ZM408.087 77.7182L422.052 103.289H408.938L395.275 77.7182H408.087ZM438.78 47.0994V103.289H426.9V47.0994H438.78ZM494.007 47.0994V103.289H483.746L459.3 67.9235H458.889V103.289H447.009V47.0994H457.435L481.688 82.4372H482.182V47.0994H494.007ZM553.912 75.1941C553.912 81.3215 552.751 86.5344 550.428 90.8327C548.123 95.1311 544.977 98.4143 540.99 100.682C537.02 102.932 532.558 104.057 527.601 104.057C522.607 104.057 518.126 102.923 514.157 100.655C510.188 98.3868 507.051 95.1036 504.746 90.8053C502.442 86.5069 501.289 81.3032 501.289 75.1941C501.289 69.0666 502.442 63.8538 504.746 59.5554C507.051 55.2571 510.188 51.983 514.157 49.7333C518.126 47.4652 522.607 46.3312 527.601 46.3312C532.558 46.3312 537.02 47.4652 540.99 49.7333C544.977 51.983 548.123 55.2571 550.428 59.5554C552.751 63.8538 553.912 69.0666 553.912 75.1941ZM541.868 75.1941C541.868 71.225 541.273 67.8777 540.084 65.1524C538.914 62.4271 537.258 60.3602 535.118 58.9518C532.978 57.5434 530.472 56.8392 527.601 56.8392C524.729 56.8392 522.223 57.5434 520.083 58.9518C517.943 60.3602 516.279 62.4271 515.09 65.1524C513.919 67.8777 513.334 71.225 513.334 75.1941C513.334 79.1632 513.919 82.5104 515.09 85.2357C516.279 87.9611 517.943 90.0279 520.083 91.4363C522.223 92.8447 524.729 93.5489 527.601 93.5489C530.472 93.5489 532.978 92.8447 535.118 91.4363C537.258 90.0279 538.914 87.9611 540.084 85.2357C541.273 82.5104 541.868 79.1632 541.868 75.1941ZM568.15 47.0994L581.73 89.7901H582.252L595.86 47.0994H609.029L589.66 103.289H574.35L554.953 47.0994H568.15ZM616.463 103.289H603.732L623.13 47.0994H638.439L657.809 103.289H645.079L631.004 59.9395H630.565L616.463 103.289ZM615.667 81.2026H645.737V90.476H615.667V81.2026Z" fill="#312ECC"/>
</svg>
